<?xml version="1.0" encoding="UTF-8"?>
<svg id="Layer_2" data-name="Layer 2" xmlns="http://www.w3.org/2000/svg" viewBox="0 0 20.07 20.13">
  <defs>
    <style>
      .cls-1 {
        fill: #0288d1;
      }

      .cls-2 {
        fill: #242d39;
      }

      .cls-3 {
        fill: none;
        stroke: #23aaee;
        stroke-miterlimit: 8;
        stroke-width: .46px;
      }
    </style>
  </defs>
  <g id="Layer_1-2" data-name="Layer 1">
    <rect class="cls-2" x=".23" y=".09" width="19.62" height="19.67" rx="3.27" ry="3.27"/>
    <rect class="cls-3" x=".23" y=".23" width="19.62" height="19.67" rx="3.27" ry="3.27"/>
    <path class="cls-1" d="m8.9,12.32l.23,1.38c-.15.08-.39.15-.7.22-.32.07-.7.11-1.14.11-1.25-.02-2.19-.4-2.82-1.11-.64-.72-.95-1.63-.95-2.74.03-1.31.41-2.31,1.13-3.02.75-.71,1.68-1.07,2.8-1.07.43,0,.79.04,1.1.11s.53.14.68.23l-.33,1.41-.6-.19c-.23-.06-.49-.09-.79-.09-.66,0-1.2.2-1.63.62-.43.41-.65,1.05-.67,1.89,0,.77.21,1.37.61,1.81.4.44.97.66,1.7.67l.75-.07c.24-.05.45-.11.62-.18m.28-2.82h1.13v-1.13h1.13v1.13h1.13v1.13h-1.13v1.13h-1.13v-1.13h-1.13v-1.13m3.97,0h1.13v-1.13h1.13v1.13h1.13v1.13h-1.13v1.13h-1.13v-1.13h-1.13v-1.13Z"/>
  </g>
</svg>