<?xml version="1.0" encoding="UTF-8"?>
<svg id="Layer_2" data-name="Layer 2" xmlns="http://www.w3.org/2000/svg" viewBox="0 0 296.06 371.23">
  <defs>
    <style>
      .cls-1 {
        font-family: Montserrat-Medium, Montserrat;
        font-weight: 500;
      }

      .cls-2 {
        fill: #1d87c9;
      }

      .cls-3 {
        font-size: 30px;
      }

      .cls-3, .cls-4 {
        font-family: Poppins-Light, Poppins;
        font-weight: 300;
      }

      .cls-5 {
        fill: #fff;
        opacity: .7;
      }

      .cls-6 {
        font-size: 48.78px;
      }

      .cls-7 {
        opacity: .3;
      }

      .cls-8 {
        stroke-width: 1.31px;
      }

      .cls-8, .cls-9, .cls-10 {
        fill: none;
        stroke: #3da6de;
        stroke-miterlimit: 10;
      }

      .cls-9 {
        stroke-width: .72px;
      }

      .cls-10 {
        stroke-width: 1.03px;
      }
    </style>
  </defs>
  <g id="Layer_1-2" data-name="Layer 1">
    <g class="cls-7">
      <path class="cls-9" d="m106.17,185.61c0,56.18-45.55,101.73-101.74,101.73-1.27,0-2.53-.02-3.78-.07V83.94c1.25-.05,2.51-.07,3.78-.07,56.19,0,101.74,45.55,101.74,101.74Z"/>
      <path class="cls-10" d="m150.16,185.61c0,80.48-65.24,145.73-145.73,145.73-1.26,0-2.52-.02-3.78-.05V39.93c1.26-.03,2.52-.05,3.78-.05,80.49,0,145.73,65.24,145.73,145.73Z"/>
      <path class="cls-8" d="m189.39,185.61c0,102.15-82.81,184.96-184.96,184.96-1.26,0-2.53-.01-3.78-.04V.69c1.25-.03,2.52-.04,3.78-.04,102.15,0,184.96,82.81,184.96,184.96Z"/>
    </g>
    <text class="cls-5" transform="translate(126.22 163.53)"><tspan class="cls-3"><tspan x="0" y="0">Danh sách</tspan></tspan><tspan class="cls-6"><tspan class="cls-4" x="0" y="51.92">bài t</tspan><tspan class="cls-1" x="107.75" y="51.92">ậ</tspan><tspan class="cls-4" x="136.91" y="51.92">p</tspan></tspan></text>
    <path class="cls-2" d="m42.08,198.53l-3.55,20.24h-11.56l9.98-57.45,20.12.04c6.21,0,11.09,1.72,14.64,5.17,3.55,3.45,5.1,7.94,4.66,13.49-.42,5.63-2.78,10.13-7.06,13.49-4.26,3.37-9.71,5.05-16.34,5.05l-10.89-.04Zm1.62-9.59l9.63.08c3.1,0,5.68-.8,7.73-2.41,2.05-1.6,3.27-3.77,3.67-6.51.39-2.74-.05-4.92-1.34-6.55-1.26-1.63-3.14-2.5-5.64-2.6l-10.89-.04-3.16,18.03Z"/>
  </g>
</svg>