<?xml version="1.0" encoding="UTF-8"?>
<svg id="Layer_2" data-name="Layer 2" xmlns="http://www.w3.org/2000/svg" viewBox="0 0 293.68 371.22">
  <defs>
    <style>
      .cls-1 {
        opacity: .7;
      }

      .cls-2 {
        fill: #fff;
      }

      .cls-3 {
        fill: #1d87c9;
      }

      .cls-4 {
        stroke-width: 1.31px;
      }

      .cls-4, .cls-5, .cls-6 {
        fill: none;
        stroke: #3da6de;
        stroke-miterlimit: 10;
      }

      .cls-5 {
        stroke-width: .72px;
      }

      .cls-6 {
        stroke-width: 1.03px;
      }
    </style>
  </defs>
  <g id="Layer_1-2" data-name="Layer 1">
    <path class="cls-5" d="m106.17,185.6c0,56.19-45.55,101.74-101.74,101.74-1.27,0-2.53-.02-3.78-.07V83.94c1.25-.05,2.51-.07,3.78-.07,56.19,0,101.74,45.55,101.74,101.73Z"/>
    <path class="cls-6" d="m150.17,185.6c0,80.49-65.25,145.73-145.74,145.73-1.26,0-2.52-.02-3.78-.05V39.92c1.26-.03,2.52-.05,3.78-.05,80.49,0,145.74,65.25,145.74,145.73Z"/>
    <path class="cls-4" d="m189.39,185.6c0,102.15-82.81,184.96-184.96,184.96-1.26,0-2.53,0-3.78-.04V.69c1.25-.03,2.52-.04,3.78-.04,102.15,0,184.96,82.8,184.96,184.95Z"/>
    <path class="cls-3" d="m81.71,175.43v-6.51h-6.52v6.51h-6.51v6.52h6.51v6.52h6.52v-6.52h6.52v-6.52h-6.52Zm-22.81,0v-6.51h-6.51v6.51h-6.52v6.52h6.52v6.52h6.51v-6.52h6.52v-6.52h-6.52Zm-18.24,17.24l-4.34.39c-4.17-.03-7.43-1.33-9.74-3.84-2.31-2.54-3.52-6-3.52-10.43.1-4.85,1.37-8.5,3.85-10.88,2.44-2.41,5.57-3.62,9.35-3.59,1.72,0,3.22.17,4.53.49l3.45,1.11,1.89-8.11c-.85-.49-2.15-.92-3.91-1.31-1.76-.39-3.88-.62-6.32-.62-6.45,0-11.8,2.09-16.1,6.16-4.17,4.04-6.35,9.81-6.51,17.34,0,6.35,1.82,11.6,5.47,15.73,3.62,4.11,9.03,6.26,16.23,6.39,2.5,0,4.69-.23,6.55-.65,1.82-.39,3.19-.82,4.04-1.27l-1.34-7.95c-1.01.42-2.18.78-3.58,1.04Z"/>
    <g class="cls-1">
      <path class="cls-2" d="m145.93,153.09c0,6.51-4.11,10.44-11.1,10.44h-6.21v-20.97h6.21c6.99,0,11.1,3.96,11.1,10.53Zm-11.1,8.7c5.94,0,8.97-3.3,8.97-8.7s-3.03-8.79-8.97-8.79h-4.11v17.49h4.11Z"/>
      <path class="cls-2" d="m156.67,146.91c3.3,0,5.55,1.77,6.48,3.84v-3.6h2.1v16.38h-2.1v-3.63c-.96,2.1-3.24,3.87-6.51,3.87-4.47,0-7.8-3.33-7.8-8.46s3.33-8.4,7.83-8.4Zm.39,1.83c-3.45,0-6.09,2.4-6.09,6.57s2.64,6.63,6.09,6.63,6.09-2.52,6.09-6.6-2.73-6.6-6.09-6.6Z"/>
      <path class="cls-2" d="m182.32,154.17c0-3.63-1.98-5.49-4.98-5.49s-5.19,1.92-5.19,5.91v8.94h-2.1v-16.38h2.1v2.79c1.05-2.04,3.15-3.09,5.58-3.09,3.72,0,6.66,2.28,6.66,7.08v9.6h-2.07v-9.36Z"/>
      <path class="cls-2" d="m189.04,141.33h2.1v8.61c1.05-2.01,3.21-3.09,5.7-3.09,3.63,0,6.54,2.28,6.54,7.08v9.6h-2.07v-9.36c0-3.63-1.98-5.49-4.98-5.49s-5.19,1.92-5.19,5.91v8.94h-2.1v-22.2Z"/>
      <path class="cls-2" d="m221.89,163.77c-3.72,0-6.33-1.86-6.6-4.86h2.16c.18,1.8,1.74,3.09,4.41,3.09,2.34,0,3.66-1.26,3.66-2.82,0-4.05-9.84-1.68-9.84-7.83,0-2.43,2.31-4.44,5.76-4.44s5.82,1.86,6,5.01h-2.1c-.12-1.83-1.47-3.21-3.96-3.21-2.19,0-3.57,1.17-3.57,2.61,0,4.44,9.69,2.07,9.78,7.86,0,2.64-2.31,4.59-5.7,4.59Z"/>
      <path class="cls-2" d="m238.42,146.91c3.3,0,5.55,1.77,6.48,3.84v-3.6h2.1v16.38h-2.1v-3.63c-.96,2.1-3.24,3.87-6.51,3.87-4.47,0-7.8-3.33-7.8-8.46s3.33-8.4,7.83-8.4Zm.39,1.83c-3.45,0-6.09,2.4-6.09,6.57s2.64,6.63,6.09,6.63,6.09-2.52,6.09-6.6-2.73-6.6-6.09-6.6Zm3.27-8.31v1.89l-6.15,3.57v-1.62l6.15-3.84Z"/>
      <path class="cls-2" d="m258.79,146.91c4.11,0,6.78,2.19,7.53,5.58h-2.25c-.54-2.34-2.52-3.78-5.28-3.78-3.21,0-5.82,2.19-5.82,6.63s2.61,6.66,5.82,6.66c2.76,0,4.71-1.41,5.28-3.81h2.25c-.75,3.27-3.42,5.58-7.53,5.58-4.62,0-7.95-3.24-7.95-8.43s3.33-8.43,7.95-8.43Z"/>
      <path class="cls-2" d="m270.19,141.33h2.1v8.61c1.05-2.01,3.21-3.09,5.7-3.09,3.63,0,6.54,2.28,6.54,7.08v9.6h-2.07v-9.36c0-3.63-1.98-5.49-4.98-5.49s-5.19,1.92-5.19,5.91v8.94h-2.1v-22.2Z"/>
      <path class="cls-2" d="m144.08,188.42c7.32,0,12.68,5.32,12.68,13.66s-5.42,13.76-12.68,13.76c-5.32,0-8.98-2.78-10.59-6.24v5.85h-3.37v-36.1h3.37v15.37c1.66-3.51,5.37-6.29,10.59-6.29Zm-.68,2.98c-5.42,0-9.9,4.1-9.9,10.73s4.49,10.73,9.9,10.73,9.9-4.05,9.9-10.78-4.29-10.68-9.9-10.68Z"/>
      <path class="cls-2" d="m174.22,188.42c5.37,0,9.02,2.88,10.54,6.24v-5.85h3.42v26.63h-3.42v-5.9c-1.56,3.41-5.27,6.29-10.58,6.29-7.27,0-12.68-5.42-12.68-13.76s5.42-13.66,12.73-13.66Zm.63,2.98c-5.61,0-9.9,3.9-9.9,10.68s4.29,10.78,9.9,10.78,9.9-4.1,9.9-10.73-4.44-10.73-9.9-10.73Zm-4.68-13.51l10,6.24v2.63l-10-5.81v-3.07Z"/>
      <path class="cls-2" d="m195.19,181.25c0-1.46,1.12-2.49,2.49-2.49s2.49,1.02,2.49,2.49-1.12,2.54-2.49,2.54-2.49-1.07-2.49-2.54Zm.78,7.56h3.42v26.63h-3.42v-26.63Z"/>
      <path class="cls-2" d="m221.48,191.69h-3.71v-2.88h3.71v-6.68h3.46v6.68h7.32v2.88h-7.32v16.54c0,3.27,1.12,4.29,4.2,4.29h3.12v2.93h-3.66c-4.63,0-7.12-1.9-7.12-7.22v-16.54Z"/>
      <path class="cls-2" d="m256.04,191.99c1.9,1.76,2.85,4.37,2.85,7.85v15.61h-4.44v-3.41c-.78,1.2-1.89,2.12-3.34,2.76-1.45.63-3.16.95-5.15.95-2.89,0-5.21-.7-6.95-2.1-1.74-1.4-2.61-3.24-2.61-5.51s.83-4.1,2.49-5.49c1.66-1.38,4.29-2.07,7.9-2.07h7.41v-.93c0-2.02-.58-3.56-1.76-4.63s-2.89-1.61-5.17-1.61c-1.53,0-3.02.25-4.49.76-1.46.5-2.7,1.18-3.71,2.02l-1.95-3.51c1.33-1.07,2.93-1.89,4.78-2.46,1.85-.57,3.82-.85,5.9-.85,3.58,0,6.32.88,8.22,2.63Zm-3.39-6.15l-4.49-3.76-4.49,3.76h-4.24l6.49-6.34h4.49l6.49,6.34h-4.24Zm-1.27,25.1c1.3-.8,2.24-1.93,2.83-3.39v-3.61h-7.22c-3.97,0-5.95,1.33-5.95,4,0,1.3.5,2.33,1.51,3.07,1.01.75,2.41,1.12,4.19,1.12s3.33-.4,4.63-1.2Zm-5.07,13.39c-.49-.46-.73-1.04-.73-1.76s.24-1.32.73-1.8,1.07-.73,1.76-.73,1.27.24,1.76.73c.49.49.73,1.09.73,1.8s-.24,1.3-.73,1.76c-.49.46-1.07.68-1.76.68s-1.27-.23-1.76-.68Z"/>
      <path class="cls-2" d="m280.99,188.42c7.27,0,12.68,5.32,12.68,13.66s-5.42,13.76-12.68,13.76c-5.32,0-9.02-2.93-10.59-6.24v18.44h-3.37v-39.22h3.37v5.85c1.56-3.37,5.27-6.24,10.59-6.24Zm-.68,2.98c-5.41,0-9.9,4.1-9.9,10.73s4.49,10.73,9.9,10.73,9.9-4.05,9.9-10.78-4.29-10.68-9.9-10.68Z"/>
    </g>
  </g>
</svg>