<?xml version="1.0" encoding="UTF-8"?>
<svg id="Layer_2" data-name="Layer 2" xmlns="http://www.w3.org/2000/svg" viewBox="0 0 296.06 371.22">
  <defs>
    <style>
      .cls-1 {
        font-family: Montserrat-Medium, Montserrat;
        font-weight: 500;
      }

      .cls-2 {
        fill: #1d87c9;
      }

      .cls-3 {
        font-size: 30px;
      }

      .cls-3, .cls-4 {
        font-family: Poppins-Light, Poppins;
        font-weight: 300;
      }

      .cls-5 {
        fill: #fff;
        opacity: .7;
      }

      .cls-6 {
        font-size: 48.78px;
      }

      .cls-7 {
        opacity: .3;
      }

      .cls-8 {
        stroke-width: 1.31px;
      }

      .cls-8, .cls-9, .cls-10 {
        fill: none;
        stroke: #3da6de;
        stroke-miterlimit: 10;
      }

      .cls-9 {
        stroke-width: .72px;
      }

      .cls-10 {
        stroke-width: 1.03px;
      }
    </style>
  </defs>
  <g id="Layer_1-2" data-name="Layer 1">
    <g class="cls-7">
      <path class="cls-9" d="m106.17,185.6c0,56.19-45.55,101.74-101.74,101.74-1.27,0-2.53-.02-3.78-.07V83.94c1.25-.05,2.51-.07,3.78-.07,56.19,0,101.74,45.55,101.74,101.73Z"/>
      <path class="cls-10" d="m150.17,185.6c0,80.49-65.25,145.73-145.74,145.73-1.26,0-2.52-.02-3.78-.05V39.92c1.26-.03,2.52-.05,3.78-.05,80.49,0,145.74,65.25,145.74,145.73Z"/>
      <path class="cls-8" d="m189.39,185.6c0,102.15-82.81,184.96-184.96,184.96-1.26,0-2.53,0-3.78-.04V.69c1.25-.03,2.52-.04,3.78-.04,102.15,0,184.96,82.8,184.96,184.95Z"/>
    </g>
    <path class="cls-2" d="m44.24,191.63l1.34,7.95c-.85.46-2.22.88-4.04,1.27-1.86.42-4.04.65-6.55.65-7.2-.13-12.61-2.28-16.23-6.39-3.65-4.14-5.47-9.38-5.47-15.74.16-7.53,2.35-13.29,6.52-17.33,4.3-4.07,9.64-6.16,16.1-6.16,2.44,0,4.56.23,6.32.62s3.06.81,3.91,1.3l-1.89,8.11-3.45-1.11c-1.3-.33-2.8-.49-4.53-.49-3.78-.03-6.91,1.17-9.35,3.58-2.48,2.38-3.75,6.03-3.84,10.88,0,4.43,1.21,7.89,3.52,10.43,2.31,2.51,5.57,3.81,9.74,3.84l4.33-.39c1.4-.26,2.57-.62,3.58-1.04m1.63-16.19h6.52v-6.52h6.52v6.52h6.52v6.52h-6.52v6.52h-6.52v-6.52h-6.52v-6.52m22.81,0h6.52v-6.52h6.52v6.52h6.52v6.52h-6.52v6.52h-6.52v-6.52h-6.52v-6.52Z"/>
    <text class="cls-5" transform="translate(126.22 163.53)"><tspan class="cls-3"><tspan x="0" y="0">Danh sách</tspan></tspan><tspan class="cls-6"><tspan class="cls-4" x="0" y="51.92">bài t</tspan><tspan class="cls-1" x="107.75" y="51.92">ậ</tspan><tspan class="cls-4" x="136.91" y="51.92">p</tspan></tspan></text>
  </g>
</svg>