<?xml version="1.0" encoding="UTF-8"?>
<svg id="Layer_2" data-name="Layer 2" xmlns="http://www.w3.org/2000/svg" viewBox="0 0 484.3 236.34">
  <defs>
    <style>
      .cls-1, .cls-2 {
        fill: none;
        stroke: #bcbec0;
        stroke-miterlimit: 10;
        stroke-width: .71px;
      }

      .cls-3, .cls-2 {
        opacity: .5;
      }

      .cls-4 {
        fill: #050606;
      }

      .cls-5 {
        fill: #203864;
      }

      .cls-6 {
        fill: #dae3f4;
      }
    </style>
  </defs>
  <g id="Layer_1-2" data-name="Layer 1">
    <rect class="cls-6" y="6.22" width="97.22" height="44.78" rx="2.21" ry="2.21"/>
    <rect class="cls-6" y="6.26" width="97.22" height="44.78" rx="2.21" ry="2.21"/>
    <rect class="cls-5" y="65.93" width="97.22" height="44.78" rx="2.21" ry="2.21"/>
    <rect class="cls-6" y="125.63" width="97.22" height="44.78" rx="2.21" ry="2.21"/>
    <rect class="cls-5" y="185.34" width="97.22" height="44.78" rx="2.21" ry="2.21"/>
    <line class="cls-2" x1="108.58" y1="28.61" x2="483.97" y2="28.61"/>
    <g class="cls-3">
      <line class="cls-1" x1="108.58" y1="71.32" x2="483.97" y2="71.32"/>
      <line class="cls-1" x1="108.58" y1="88.32" x2="483.97" y2="88.32"/>
      <line class="cls-1" x1="108.58" y1="105.32" x2="483.97" y2="105.32"/>
    </g>
    <g class="cls-3">
      <line class="cls-1" x1="108.58" y1="131.02" x2="483.97" y2="131.02"/>
      <line class="cls-1" x1="108.58" y1="148.02" x2="483.97" y2="148.02"/>
      <line class="cls-1" x1="108.58" y1="165.02" x2="483.97" y2="165.02"/>
    </g>
    <g class="cls-3">
      <line class="cls-1" x1="108.58" y1="190.32" x2="483.97" y2="190.32"/>
      <line class="cls-1" x1="108.58" y1="207.32" x2="483.97" y2="207.32"/>
      <line class="cls-1" x1="108.58" y1="224.32" x2="483.97" y2="224.32"/>
    </g>
    <line class="cls-2" x1="108.58" x2="108.58" y2="236.34"/>
    <line class="cls-2" x1="202.42" x2="202.42" y2="236.34"/>
    <line class="cls-2" x1="296.26" x2="296.26" y2="236.34"/>
    <line class="cls-2" x1="390.1" x2="390.1" y2="236.34"/>
    <line class="cls-2" x1="483.94" x2="483.94" y2="236.34"/>
    <g>
      <path class="cls-4" d="m34.52,24.38v6.18h2.41v.94h-3.58v-7.13h1.17Z"/>
      <path class="cls-4" d="m40.33,31.6c-1.62,0-2.82-1.15-2.82-2.92s1.15-2.91,2.82-2.91,2.75,1.12,2.75,2.78c0,.19-.01.38-.04.57h-4.32c.08.93.75,1.5,1.61,1.5.72,0,1.12-.35,1.33-.79h1.26c-.32.98-1.21,1.77-2.59,1.77Zm-1.6-3.42h3.13c-.02-.87-.71-1.43-1.58-1.43-.79,0-1.43.53-1.55,1.43Z"/>
      <path class="cls-4" d="m44.81,25.86l1.6,4.6,1.6-4.6h1.24l-2.15,5.65h-1.39l-2.14-5.65h1.25Z"/>
      <path class="cls-4" d="m52.56,31.6c-1.62,0-2.82-1.15-2.82-2.92s1.15-2.91,2.82-2.91,2.75,1.12,2.75,2.78c0,.19-.01.38-.04.57h-4.32c.08.93.75,1.5,1.61,1.5.72,0,1.12-.35,1.33-.79h1.26c-.32.98-1.21,1.77-2.59,1.77Zm-1.6-3.42h3.13c-.02-.87-.71-1.43-1.58-1.43-.79,0-1.43.53-1.55,1.43Z"/>
      <path class="cls-4" d="m56.45,23.92h1.17v7.59h-1.17v-7.59Z"/>
      <path class="cls-4" d="m62.47,25.1h-.95v-1.07h2.13v7.48h-1.18v-6.41Z"/>
    </g>
    <g>
      <path class="cls-6" d="m33.36,84.06v6.18h2.41v.94h-3.58v-7.13h1.17Z"/>
      <path class="cls-6" d="m39.17,91.28c-1.62,0-2.82-1.15-2.82-2.92s1.15-2.91,2.82-2.91,2.75,1.12,2.75,2.78c0,.19-.01.38-.04.57h-4.32c.08.93.75,1.5,1.61,1.5.72,0,1.12-.35,1.33-.79h1.26c-.32.98-1.21,1.77-2.59,1.77Zm-1.6-3.42h3.13c-.02-.87-.71-1.43-1.58-1.43-.79,0-1.43.53-1.55,1.43Z"/>
      <path class="cls-6" d="m43.65,85.54l1.6,4.6,1.6-4.6h1.24l-2.15,5.65h-1.39l-2.14-5.65h1.25Z"/>
      <path class="cls-6" d="m51.4,91.28c-1.62,0-2.82-1.15-2.82-2.92s1.15-2.91,2.82-2.91,2.75,1.12,2.75,2.78c0,.19-.01.38-.04.57h-4.32c.08.93.75,1.5,1.61,1.5.72,0,1.12-.35,1.33-.79h1.26c-.32.98-1.21,1.77-2.59,1.77Zm-1.6-3.42h3.13c-.02-.87-.71-1.43-1.58-1.43-.79,0-1.43.53-1.55,1.43Z"/>
      <path class="cls-6" d="m55.29,83.6h1.17v7.59h-1.17v-7.59Z"/>
      <path class="cls-6" d="m60.41,90.24c1.76-1.55,3.62-2.9,3.62-4.37,0-.78-.34-1.31-1.21-1.31-.82,0-1.26.57-1.29,1.42h-1.13c.04-1.62,1.09-2.41,2.41-2.41,1.52,0,2.38.91,2.38,2.26,0,1.81-1.85,3.2-3.05,4.3h3.25v.97h-4.98v-.85Z"/>
    </g>
    <g>
      <path class="cls-5" d="m33.27,143.64v6.18h2.41v.94h-3.58v-7.13h1.17Z"/>
      <path class="cls-5" d="m39.08,150.86c-1.62,0-2.82-1.15-2.82-2.92s1.15-2.91,2.82-2.91,2.75,1.12,2.75,2.78c0,.19-.01.38-.04.57h-4.32c.08.93.75,1.5,1.61,1.5.72,0,1.12-.35,1.33-.79h1.26c-.32.98-1.21,1.77-2.59,1.77Zm-1.6-3.42h3.13c-.02-.87-.71-1.43-1.58-1.43-.79,0-1.43.53-1.55,1.43Z"/>
      <path class="cls-5" d="m43.56,145.12l1.6,4.6,1.6-4.6h1.24l-2.15,5.65h-1.39l-2.14-5.65h1.25Z"/>
      <path class="cls-5" d="m51.31,150.86c-1.62,0-2.82-1.15-2.82-2.92s1.15-2.91,2.82-2.91,2.75,1.12,2.75,2.78c0,.19-.01.38-.04.57h-4.32c.08.93.75,1.5,1.61,1.5.72,0,1.12-.35,1.33-.79h1.26c-.32.98-1.21,1.77-2.59,1.77Zm-1.6-3.42h3.13c-.02-.87-.71-1.43-1.58-1.43-.79,0-1.43.53-1.55,1.43Z"/>
      <path class="cls-5" d="m55.2,143.18h1.17v7.59h-1.17v-7.59Z"/>
      <path class="cls-5" d="m62.85,143.12c1.49,0,2.3.86,2.3,1.95,0,.89-.56,1.5-1.15,1.69v.04c.78.24,1.28.88,1.28,1.92,0,1.19-.84,2.09-2.4,2.09-1.42,0-2.51-.74-2.58-2.2h1.13c.05.7.56,1.23,1.45,1.23s1.3-.53,1.3-1.23c0-.98-.64-1.32-1.86-1.32h-.27v-.96h.28c1.06-.01,1.7-.32,1.7-1.12,0-.65-.42-1.08-1.22-1.08s-1.2.49-1.27,1.02h-1.14c.08-1.29,1.09-2.02,2.45-2.02Z"/>
    </g>
    <g>
      <path class="cls-6" d="m35.3,203.07v6.18h2.41v.94h-3.58v-7.13h1.17Z"/>
      <path class="cls-6" d="m41.11,210.29c-1.62,0-2.82-1.15-2.82-2.92s1.15-2.91,2.82-2.91,2.75,1.12,2.75,2.78c0,.19-.01.38-.04.57h-4.32c.08.93.75,1.5,1.61,1.5.72,0,1.12-.35,1.33-.79h1.26c-.32.98-1.21,1.77-2.59,1.77Zm-1.6-3.42h3.13c-.02-.87-.71-1.43-1.58-1.43-.79,0-1.43.53-1.55,1.43Z"/>
      <path class="cls-6" d="m45.59,204.55l1.6,4.6,1.6-4.6h1.24l-2.15,5.65h-1.39l-2.14-5.65h1.25Z"/>
      <path class="cls-6" d="m53.34,210.29c-1.62,0-2.82-1.15-2.82-2.92s1.15-2.91,2.82-2.91,2.75,1.12,2.75,2.78c0,.19-.01.38-.04.57h-4.32c.08.93.75,1.5,1.61,1.5.72,0,1.12-.35,1.33-.79h1.26c-.32.98-1.21,1.77-2.59,1.77Zm-1.6-3.42h3.13c-.02-.87-.71-1.43-1.58-1.43-.79,0-1.43.53-1.55,1.43Z"/>
      <path class="cls-6" d="m57.24,202.61h1.17v7.59h-1.17v-7.59Z"/>
      <path class="cls-6" d="m66.02,208.64h-3.71v-.88l3.45-4.94h1.42v4.81h.95v1.02h-.95v1.56h-1.15v-1.56Zm.05-1.02v-3.62l-2.42,3.62h2.42Z"/>
    </g>
  </g>
</svg>