<?xml version="1.0" encoding="UTF-8"?>
<svg id="Layer_2" data-name="Layer 2" xmlns="http://www.w3.org/2000/svg" xmlns:xlink="http://www.w3.org/1999/xlink" viewBox="0 0 300.01 485.92">
  <defs>
    <style>
      .cls-1 {
        fill: #fff;
      }

      .cls-2 {
        fill: #262c3c;
        stroke: url(#linear-gradient);
        stroke-miterlimit: 10;
        stroke-width: 0px;
      }

      .cls-3 {
        opacity: .9;
      }

      .cls-4 {
        opacity: .8;
      }

      .cls-5 {
        fill: #268bc2;
      }

      .cls-6 {
        opacity: .95;
      }
    </style>
    <linearGradient id="linear-gradient" x1="0" y1="243.12" x2="300.01" y2="243.12" gradientUnits="userSpaceOnUse">
      <stop offset="0" stop-color="#fff" stop-opacity=".9"/>
      <stop offset="1" stop-color="#fff"/>
    </linearGradient>
  </defs>
  <g id="Layer_1-2" data-name="Layer 1">
    <rect class="cls-2" y=".32" width="300.01" height="485.61"/>
    <g class="cls-6">
      <path class="cls-1" d="m44.32,175.2h-12v-3.12h27.61v3.12h-12v31.02h-3.61v-31.02Z"/>
      <path class="cls-1" d="m64.22,174.22c-.49-.49-.73-1.07-.73-1.76s.24-1.22.73-1.71,1.09-.73,1.8-.73,1.32.24,1.8.71c.49.47.73,1.03.73,1.68,0,.72-.24,1.32-.73,1.81-.49.49-1.09.73-1.8.73s-1.32-.24-1.8-.73Zm.05,6.34h3.46v25.66h-3.46v-25.66Z"/>
      <path class="cls-1" d="m98.15,183.17c1.9,1.87,2.85,4.59,2.85,8.17v14.88h-3.46v-14.54c0-2.67-.67-4.7-2-6.1-1.33-1.4-3.24-2.1-5.71-2.1-2.76,0-4.95.82-6.56,2.46-1.61,1.64-2.41,3.91-2.41,6.8v13.46h-3.46v-25.66h3.32v4.73c.94-1.56,2.25-2.77,3.93-3.63,1.67-.86,3.62-1.29,5.83-1.29,3.22,0,5.78.93,7.68,2.8Z"/>
      <path class="cls-1" d="m143.95,183.17c1.9,1.87,2.85,4.59,2.85,8.17v14.88h-3.46v-14.54c0-2.67-.67-4.7-2-6.1-1.33-1.4-3.24-2.1-5.71-2.1-2.76,0-4.95.82-6.56,2.46-1.61,1.64-2.41,3.91-2.41,6.8v13.46h-3.46v-36.19h3.46v15.02c.94-1.5,2.24-2.65,3.9-3.46s3.56-1.22,5.71-1.22c3.22,0,5.78.93,7.68,2.8Z"/>
      <path class="cls-1" d="m160.12,204.78c-1.98-1.12-3.54-2.67-4.68-4.66-1.14-1.98-1.71-4.23-1.71-6.73s.57-4.75,1.71-6.73c1.14-1.98,2.7-3.53,4.68-4.63,1.98-1.11,4.21-1.66,6.68-1.66s4.7.55,6.68,1.66,3.54,2.65,4.66,4.63c1.12,1.98,1.68,4.23,1.68,6.73s-.56,4.75-1.68,6.73-2.67,3.54-4.66,4.66c-1.98,1.12-4.21,1.68-6.68,1.68s-4.7-.56-6.68-1.68Zm11.58-2.63c1.45-.83,2.58-2.01,3.39-3.54.81-1.53,1.22-3.27,1.22-5.22s-.41-3.69-1.22-5.22c-.81-1.53-1.94-2.71-3.39-3.54-1.45-.83-3.08-1.24-4.9-1.24s-3.46.41-4.9,1.24c-1.45.83-2.58,2.01-3.42,3.54-.83,1.53-1.24,3.27-1.24,5.22s.41,3.69,1.24,5.22c.83,1.53,1.97,2.71,3.42,3.54,1.45.83,3.08,1.24,4.9,1.24s3.46-.42,4.9-1.24Zm-6.44,12.76c-.41-.39-.61-.9-.61-1.51s.2-1.12.61-1.51c.41-.39.9-.58,1.49-.58s1.08.19,1.49.58c.41.39.61.89.61,1.51s-.2,1.12-.61,1.51c-.41.39-.9.58-1.49.58s-1.08-.2-1.49-.58Z"/>
      <path class="cls-1" d="m190.72,204.81c-2-1.11-3.57-2.66-4.71-4.66-1.14-2-1.71-4.25-1.71-6.76s.57-4.75,1.71-6.73c1.14-1.98,2.71-3.53,4.71-4.63s4.27-1.66,6.8-1.66c2.21,0,4.19.43,5.93,1.29,1.74.86,3.11,2.12,4.12,3.78l-2.58,1.76c-.85-1.27-1.92-2.22-3.22-2.85-1.3-.63-2.72-.95-4.24-.95-1.85,0-3.52.41-5,1.24-1.48.83-2.63,2.01-3.46,3.54-.83,1.53-1.24,3.27-1.24,5.22s.41,3.73,1.24,5.24c.83,1.51,1.98,2.68,3.46,3.51,1.48.83,3.15,1.24,5,1.24,1.53,0,2.94-.31,4.24-.93,1.3-.62,2.37-1.56,3.22-2.83l2.58,1.76c-1.01,1.66-2.39,2.92-4.15,3.78-1.76.86-3.72,1.29-5.9,1.29-2.54,0-4.8-.55-6.8-1.66Z"/>
      <path class="cls-1" d="m40.79,256.72c-2-1.11-3.57-2.66-4.71-4.66-1.14-2-1.71-4.25-1.71-6.76s.57-4.75,1.71-6.73c1.14-1.98,2.71-3.53,4.71-4.63s4.27-1.66,6.8-1.66c2.21,0,4.19.43,5.93,1.29,1.74.86,3.11,2.12,4.12,3.78l-2.58,1.76c-.85-1.27-1.92-2.22-3.22-2.85-1.3-.63-2.72-.95-4.24-.95-1.85,0-3.52.41-5,1.24-1.48.83-2.63,2.01-3.46,3.54-.83,1.53-1.24,3.27-1.24,5.22s.41,3.73,1.24,5.24c.83,1.51,1.98,2.68,3.46,3.51,1.48.83,3.15,1.24,5,1.24,1.53,0,2.94-.31,4.24-.93,1.3-.62,2.37-1.56,3.22-2.83l2.58,1.76c-1.01,1.66-2.39,2.92-4.15,3.78-1.76.86-3.72,1.29-5.9,1.29-2.54,0-4.8-.55-6.8-1.66Z"/>
      <path class="cls-1" d="m86.15,239.24c.89,1.8,1.34,3.83,1.34,6.07,0,2.5-.56,4.75-1.68,6.73s-2.67,3.54-4.66,4.66c-1.98,1.12-4.21,1.68-6.68,1.68s-4.7-.56-6.68-1.68c-1.98-1.12-3.54-2.67-4.68-4.66-1.14-1.98-1.71-4.23-1.71-6.73s.57-4.75,1.71-6.73c1.14-1.98,2.7-3.53,4.68-4.63,1.98-1.11,4.21-1.66,6.68-1.66.65,0,1.29.02,1.9.07.62.05,1.06.07,1.32.07.88.1,1.82.15,2.83.15,1.3,0,2.28-.33,2.95-.98.67-.65,1-1.46,1-2.44s-.33-2.05-.98-3.12l2.24-.88c.88,1.33,1.32,2.7,1.32,4.1s-.41,2.58-1.22,3.56-1.97,1.63-3.46,1.95c1.63,1.17,2.89,2.66,3.78,4.46Zm-6.83,14.83c1.45-.83,2.58-2.01,3.42-3.54.83-1.53,1.24-3.27,1.24-5.22s-.41-3.69-1.22-5.22c-.81-1.53-1.94-2.71-3.39-3.54-1.45-.83-3.08-1.24-4.9-1.24s-3.46.41-4.9,1.24c-1.45.83-2.58,2.01-3.42,3.54-.83,1.53-1.24,3.27-1.24,5.22s.41,3.69,1.24,5.22c.83,1.53,1.97,2.71,3.42,3.54,1.45.83,3.08,1.24,4.9,1.24s3.41-.42,4.85-1.24Z"/>
      <path class="cls-1" d="m108.24,257.48c-1.9-.6-3.39-1.36-4.46-2.27l1.56-2.73c1.07.85,2.42,1.54,4.05,2.07,1.62.54,3.32.8,5.07.8,2.34,0,4.07-.37,5.2-1.1,1.12-.73,1.68-1.76,1.68-3.1,0-.94-.31-1.68-.93-2.22-.62-.54-1.4-.94-2.34-1.22-.94-.28-2.19-.54-3.76-.8-2.08-.39-3.76-.79-5.02-1.2-1.27-.41-2.35-1.1-3.24-2.07s-1.34-2.33-1.34-4.05c0-2.15.89-3.9,2.68-5.27,1.79-1.37,4.28-2.05,7.46-2.05,1.66,0,3.32.22,4.97.66,1.66.44,3.02,1.02,4.1,1.73l-1.51,2.78c-2.11-1.46-4.63-2.19-7.56-2.19-2.21,0-3.88.39-5,1.17-1.12.78-1.68,1.8-1.68,3.07,0,.98.32,1.76.95,2.34.63.58,1.42,1.02,2.37,1.29.94.28,2.24.56,3.9.85,2.05.39,3.69.78,4.93,1.17,1.24.39,2.29,1.06,3.17,2s1.32,2.24,1.32,3.9c0,2.24-.94,4.02-2.8,5.34-1.87,1.32-4.46,1.98-7.78,1.98-2.08,0-4.07-.3-5.97-.9Z"/>
      <path class="cls-1" d="m153.36,239.24c.89,1.8,1.34,3.83,1.34,6.07,0,2.5-.56,4.75-1.68,6.73s-2.67,3.54-4.66,4.66c-1.98,1.12-4.21,1.68-6.68,1.68s-4.7-.56-6.68-1.68c-1.98-1.12-3.54-2.67-4.68-4.66-1.14-1.98-1.71-4.23-1.71-6.73s.57-4.75,1.71-6.73c1.14-1.98,2.7-3.53,4.68-4.63,1.98-1.11,4.21-1.66,6.68-1.66.65,0,1.29.02,1.9.07.62.05,1.06.07,1.32.07.88.1,1.82.15,2.83.15,1.3,0,2.28-.33,2.95-.98.67-.65,1-1.46,1-2.44s-.33-2.05-.98-3.12l2.24-.88c.88,1.33,1.32,2.7,1.32,4.1s-.41,2.58-1.22,3.56-1.97,1.63-3.46,1.95c1.63,1.17,2.89,2.66,3.78,4.46Zm-6.83,14.83c1.45-.83,2.58-2.01,3.42-3.54.83-1.53,1.24-3.27,1.24-5.22s-.41-3.69-1.22-5.22c-.81-1.53-1.94-2.71-3.39-3.54-1.45-.83-3.08-1.24-4.9-1.24s-3.46.41-4.9,1.24c-1.45.83-2.58,2.01-3.42,3.54-.83,1.53-1.24,3.27-1.24,5.22s.41,3.69,1.24,5.22c.83,1.53,1.97,2.71,3.42,3.54,1.45.83,3.08,1.24,4.9,1.24s3.41-.42,4.85-1.24Zm-5.44-26.75c1.92-.88,2.88-2.03,2.88-3.46,0-.68-.25-1.25-.76-1.71-.5-.46-1.15-.68-1.93-.68-1.01,0-1.98.31-2.93.93l-.83-1.71c.52-.39,1.15-.7,1.88-.93.73-.23,1.46-.34,2.17-.34,1.37,0,2.48.38,3.34,1.15.86.76,1.29,1.78,1.29,3.05,0,2.28-1.3,4.02-3.9,5.22l-1.22-1.51Z"/>
      <path class="cls-1" d="m195.58,255.02v3.12h-23.95v-2.49l14.19-13.9c1.79-1.76,3-3.28,3.63-4.56.63-1.28.95-2.58.95-3.88,0-2.02-.69-3.58-2.07-4.71-1.38-1.12-3.36-1.68-5.93-1.68-4,0-7.11,1.27-9.32,3.8l-2.49-2.15c1.33-1.56,3.03-2.76,5.1-3.61,2.06-.85,4.4-1.27,7-1.27,3.48,0,6.24.82,8.27,2.46,2.03,1.64,3.05,3.89,3.05,6.76,0,1.76-.39,3.45-1.17,5.07s-2.26,3.5-4.44,5.61l-11.61,11.41h18.78Z"/>
    </g>
    <g class="cls-3">
      <rect class="cls-5" x="32.13" y="102.05" width="88.29" height="31.17" rx="6.2" ry="6.2"/>
    </g>
    <g class="cls-6">
      <path class="cls-1" d="m47.37,123.1c-.94-.52-1.68-1.24-2.22-2.16-.54-.92-.8-1.95-.8-3.09s.27-2.17.8-3.09c.54-.92,1.28-1.64,2.23-2.16.95-.52,2.01-.78,3.18-.78.88,0,1.69.15,2.44.44.75.29,1.38.72,1.9,1.29l-.8.79c-.93-.94-2.09-1.41-3.51-1.41-.94,0-1.79.21-2.56.64-.77.43-1.37,1.02-1.8,1.76s-.65,1.58-.65,2.51.22,1.76.65,2.51,1.04,1.33,1.8,1.76c.77.43,1.62.64,2.56.64,1.42,0,2.59-.47,3.51-1.42l.8.8c-.52.56-1.15,1-1.91,1.3-.75.3-1.57.45-2.45.45-1.17,0-2.23-.26-3.17-.78Z"/>
      <path class="cls-1" d="m62,111.92h1.25v10.77h6.64v1.08h-7.89v-11.85Z"/>
      <path class="cls-1" d="m79.45,120.61h-6.6l-1.42,3.17h-1.3l5.42-11.85h1.24l5.42,11.85h-1.32l-1.42-3.17Zm-.46-1.02l-2.84-6.37-2.84,6.37h5.69Z"/>
      <path class="cls-1" d="m94.06,111.92v11.85h-1.03l-7.62-9.62v9.62h-1.25v-11.85h1.03l7.64,9.62v-9.62h1.24Z"/>
      <path class="cls-1" d="m106.27,117.85h1.2v4.52c-.55.49-1.21.86-1.96,1.12-.76.26-1.55.39-2.39.39-1.19,0-2.25-.26-3.2-.78-.95-.52-1.69-1.24-2.24-2.16-.54-.92-.81-1.95-.81-3.09s.27-2.17.81-3.09c.54-.92,1.29-1.64,2.24-2.16.95-.52,2.02-.78,3.22-.78.9,0,1.73.14,2.49.43.76.29,1.39.71,1.91,1.28l-.78.8c-.94-.93-2.13-1.39-3.57-1.39-.96,0-1.83.21-2.6.64-.77.42-1.38,1.01-1.82,1.76s-.66,1.59-.66,2.51.22,1.76.66,2.51,1.04,1.33,1.81,1.76c.77.43,1.63.64,2.59.64,1.22,0,2.25-.31,3.1-.92v-4Z"/>
    </g>
    <g>
      <g class="cls-4">
        <path class="cls-1" d="m45.58,316.49v11.2h-1.14v-8.96l-4.4,7.54h-.56l-4.4-7.49v8.91h-1.14v-11.2h.98l4.86,8.3,4.82-8.3h.98Z"/>
      </g>
      <g class="cls-4">
        <path class="cls-1" d="m56.57,319.28v8.42h-1.09v-1.54c-.3.51-.71.91-1.23,1.19-.52.28-1.12.42-1.79.42-1.1,0-1.96-.31-2.6-.92s-.95-1.51-.95-2.7v-4.88h1.14v4.77c0,.89.22,1.56.66,2.02s1.06.69,1.87.69c.89,0,1.58-.27,2.1-.81.51-.54.77-1.29.77-2.25v-4.42h1.14Zm-4.31,11.26c-.13-.13-.2-.29-.2-.5s.07-.37.2-.5c.13-.13.3-.19.49-.19s.35.06.49.19c.13.13.2.29.2.5s-.07.37-.2.5c-.13.13-.3.19-.49.19s-.35-.06-.49-.19Z"/>
      </g>
      <g class="cls-4">
        <path class="cls-1" d="m61.01,327.23c-.66-.36-1.17-.87-1.54-1.53s-.56-1.39-.56-2.22.19-1.56.56-2.21.89-1.16,1.54-1.52c.66-.36,1.4-.54,2.23-.54.72,0,1.37.14,1.94.42.57.28,1.02.7,1.35,1.24l-.85.58c-.28-.42-.63-.73-1.06-.94s-.89-.31-1.39-.31c-.61,0-1.16.14-1.64.41-.49.27-.86.66-1.14,1.16-.27.5-.41,1.07-.41,1.71s.14,1.22.41,1.72c.27.5.65.88,1.14,1.15.49.27,1.03.41,1.64.41.5,0,.96-.1,1.39-.3.43-.2.78-.51,1.06-.93l.85.58c-.33.54-.78.96-1.36,1.24-.58.28-1.22.42-1.94.42-.83,0-1.58-.18-2.23-.54Z"/>
      </g>
      <g class="cls-4">
        <path class="cls-1" d="m77.39,327.18c-.21.19-.48.34-.79.44-.31.1-.64.15-.98.15-.79,0-1.4-.21-1.82-.64s-.64-1.03-.64-1.81v-5.09h-1.5v-.96h1.5v-1.84h1.14v1.84h2.56v.96h-2.56v5.02c0,.5.12.88.38,1.14.25.26.61.39,1.08.39.23,0,.46-.04.68-.11s.41-.18.57-.32l.4.82Z"/>
      </g>
      <g class="cls-4">
        <path class="cls-1" d="m79.44,317.2c-.16-.16-.24-.35-.24-.58,0-.21.08-.4.24-.56.16-.16.36-.24.59-.24s.43.08.59.23c.16.15.24.34.24.55,0,.23-.08.43-.24.59s-.36.24-.59.24-.43-.08-.59-.24Zm.02,2.08h1.14v8.42h-1.14v-8.42Z"/>
      </g>
      <g class="cls-4">
        <path class="cls-1" d="m91.09,323.84h-7.04c.06.88.4,1.58,1.01,2.12.61.54,1.38.81,2.3.81.52,0,1-.09,1.44-.28s.82-.46,1.14-.82l.64.74c-.37.45-.84.79-1.4,1.02-.56.24-1.18.35-1.85.35-.86,0-1.63-.18-2.3-.55-.67-.37-1.19-.88-1.56-1.53s-.56-1.39-.56-2.21.18-1.56.54-2.21c.36-.65.85-1.16,1.47-1.52.62-.36,1.33-.54,2.1-.54s1.48.18,2.1.54c.62.36,1.1.87,1.46,1.51.35.65.53,1.38.53,2.22l-.02.35Zm-6.1-2.87c-.55.52-.86,1.19-.94,2.02h5.97c-.07-.83-.39-1.51-.94-2.02-.55-.52-1.24-.78-2.06-.78s-1.49.26-2.04.78Zm3.62-3l-1.58-1.33-1.58,1.33h-1.06l2.06-1.98h1.15l2.06,1.98h-1.06Z"/>
      </g>
      <g class="cls-4">
        <path class="cls-1" d="m101.01,319.28v8.42h-1.09v-1.54c-.3.51-.71.91-1.23,1.19-.52.28-1.12.42-1.79.42-1.1,0-1.96-.31-2.6-.92s-.95-1.51-.95-2.7v-4.88h1.14v4.77c0,.89.22,1.56.66,2.02s1.06.69,1.87.69c.89,0,1.58-.27,2.1-.81.51-.54.77-1.29.77-2.25v-4.42h1.14Z"/>
      </g>
      <g class="cls-4">
        <path class="cls-1" d="m103.7,320.7c-.17-.17-.25-.38-.25-.62s.08-.45.25-.62c.17-.17.37-.25.6-.25s.44.08.61.25c.17.17.26.37.26.62s-.08.45-.26.62c-.17.17-.37.26-.61.26s-.43-.08-.6-.26Zm0,6.82c-.17-.17-.25-.38-.25-.62s.08-.45.25-.62c.17-.17.37-.25.6-.25s.44.08.61.25.26.37.26.62-.08.45-.26.62-.37.26-.61.26-.43-.08-.6-.26Z"/>
      </g>
      <g class="cls-4">
        <path class="cls-1" d="m116.21,327.18c-.21.19-.48.34-.79.44-.31.1-.64.15-.98.15-.79,0-1.4-.21-1.82-.64s-.64-1.03-.64-1.81v-5.09h-1.5v-.96h1.5v-1.84h1.14v1.84h2.56v.96h-2.56v5.02c0,.5.12.88.38,1.14.25.26.61.39,1.08.39.23,0,.46-.04.68-.11s.41-.18.57-.32l.4.82Z"/>
      </g>
      <g class="cls-4">
        <path class="cls-1" d="m125.08,320.13c.62.61.94,1.51.94,2.68v4.88h-1.14v-4.77c0-.88-.22-1.54-.66-2-.44-.46-1.06-.69-1.87-.69-.91,0-1.62.27-2.15.81-.53.54-.79,1.28-.79,2.23v4.42h-1.14v-11.87h1.14v4.93c.31-.49.74-.87,1.28-1.14s1.17-.4,1.87-.4c1.06,0,1.9.31,2.52.92Z"/>
      </g>
      <g class="cls-4">
        <path class="cls-1" d="m134.57,320.04c.59.55.88,1.36.88,2.44v5.22h-1.09v-1.31c-.26.44-.63.78-1.13,1.02s-1.08.37-1.77.37c-.94,0-1.69-.22-2.24-.67s-.83-1.04-.83-1.78.26-1.29.78-1.73c.52-.44,1.34-.66,2.47-.66h2.67v-.51c0-.73-.2-1.28-.61-1.66-.41-.38-1-.57-1.78-.57-.53,0-1.05.09-1.54.26-.49.18-.91.42-1.26.73l-.51-.85c.43-.36.94-.64,1.54-.84.6-.2,1.23-.3,1.89-.3,1.1,0,1.94.28,2.53.82Zm-5.17-4.06h1.52l2.19,1.98h-1.12l-2.59-1.98Zm3.89,10.46c.46-.29.8-.72,1.02-1.27v-1.38h-2.64c-1.44,0-2.16.5-2.16,1.5,0,.49.19.88.56,1.16.37.28.9.42,1.57.42s1.19-.15,1.65-.44Z"/>
      </g>
      <g class="cls-4">
        <path class="cls-1" d="m145.35,320.13c.62.61.94,1.51.94,2.68v4.88h-1.14v-4.77c0-.88-.22-1.54-.66-2-.44-.46-1.06-.69-1.87-.69-.91,0-1.62.27-2.15.81-.53.54-.79,1.28-.79,2.23v4.42h-1.14v-8.42h1.09v1.55c.31-.51.74-.91,1.29-1.19.55-.28,1.19-.42,1.91-.42,1.06,0,1.9.31,2.52.92Z"/>
      </g>
      <g class="cls-4">
        <path class="cls-1" d="m156.18,320.13c.62.61.94,1.51.94,2.68v4.88h-1.14v-4.77c0-.88-.22-1.54-.66-2-.44-.46-1.06-.69-1.87-.69-.91,0-1.62.27-2.15.81-.53.54-.79,1.28-.79,2.23v4.42h-1.14v-11.87h1.14v4.93c.31-.49.74-.87,1.28-1.14s1.17-.4,1.87-.4c1.06,0,1.9.31,2.52.92Z"/>
      </g>
      <g class="cls-4">
        <path class="cls-1" d="m168.83,327.18c-.21.19-.48.34-.79.44-.31.1-.64.15-.98.15-.79,0-1.4-.21-1.82-.64s-.64-1.03-.64-1.81v-5.09h-1.5v-.96h1.5v-1.84h1.14v1.84h2.56v.96h-2.56v5.02c0,.5.12.88.38,1.14.25.26.61.39,1.08.39.23,0,.46-.04.68-.11s.41-.18.57-.32l.4.82Z"/>
      </g>
      <g class="cls-4">
        <path class="cls-1" d="m177.7,320.13c.62.61.94,1.51.94,2.68v4.88h-1.14v-4.77c0-.88-.22-1.54-.66-2-.44-.46-1.06-.69-1.87-.69-.91,0-1.62.27-2.15.81-.53.54-.79,1.28-.79,2.23v4.42h-1.14v-11.87h1.14v4.93c.31-.49.74-.87,1.28-1.14s1.17-.4,1.87-.4c1.06,0,1.9.31,2.52.92Z"/>
      </g>
      <g class="cls-4">
        <path class="cls-1" d="m187.2,320.04c.59.55.88,1.36.88,2.44v5.22h-1.09v-1.31c-.26.44-.63.78-1.13,1.02s-1.08.37-1.77.37c-.94,0-1.69-.22-2.24-.67s-.83-1.04-.83-1.78.26-1.29.78-1.73c.52-.44,1.34-.66,2.47-.66h2.67v-.51c0-.73-.2-1.28-.61-1.66-.41-.38-1-.57-1.78-.57-.53,0-1.05.09-1.54.26-.49.18-.91.42-1.26.73l-.51-.85c.43-.36.94-.64,1.54-.84.6-.2,1.23-.3,1.89-.3,1.1,0,1.94.28,2.53.82Zm-1.28,6.4c.46-.29.8-.72,1.02-1.27v-1.38h-2.64c-1.44,0-2.16.5-2.16,1.5,0,.49.19.88.56,1.16.37.28.9.42,1.57.42s1.19-.15,1.65-.44Zm-1.67,4.1c-.13-.13-.2-.29-.2-.5s.07-.37.2-.5c.13-.13.3-.19.49-.19s.35.06.49.19c.13.13.2.29.2.5s-.07.37-.2.5c-.13.13-.3.19-.49.19s-.35-.06-.49-.19Z"/>
      </g>
      <g class="cls-4">
        <path class="cls-1" d="m192.44,327.22c-.65-.37-1.16-.88-1.54-1.53s-.56-1.39-.56-2.21.19-1.56.56-2.21.89-1.16,1.54-1.52c.65-.36,1.38-.54,2.19-.54s1.54.18,2.19.54c.65.36,1.16.87,1.53,1.52s.55,1.39.55,2.21-.18,1.56-.55,2.21-.88,1.16-1.53,1.53-1.38.55-2.19.55-1.54-.18-2.19-.55Zm3.8-.86c.47-.27.85-.66,1.11-1.16.27-.5.4-1.07.4-1.71s-.13-1.21-.4-1.71-.64-.89-1.11-1.16c-.47-.27-1.01-.41-1.61-.41s-1.13.14-1.61.41c-.47.27-.85.66-1.12,1.16-.27.5-.41,1.07-.41,1.71s.14,1.21.41,1.71c.27.5.65.89,1.12,1.16.47.27,1.01.41,1.61.41s1.13-.14,1.61-.41Z"/>
      </g>
      <g class="cls-4">
        <path class="cls-1" d="m212.23,320.13c.62.61.94,1.51.94,2.68v4.88h-1.14v-4.77c0-.88-.22-1.54-.66-2-.44-.46-1.06-.69-1.87-.69-.91,0-1.62.27-2.15.81-.53.54-.79,1.28-.79,2.23v4.42h-1.14v-8.42h1.09v1.55c.31-.51.74-.91,1.29-1.19.55-.28,1.19-.42,1.91-.42,1.06,0,1.9.31,2.52.92Z"/>
      </g>
      <g class="cls-4">
        <path class="cls-1" d="m224.08,319.28v7.39c0,1.43-.35,2.49-1.05,3.18-.7.69-1.75,1.03-3.16,1.03-.78,0-1.52-.11-2.22-.34-.7-.23-1.27-.55-1.7-.95l.58-.86c.41.36.9.64,1.48.85.58.2,1.19.3,1.83.3,1.07,0,1.85-.25,2.35-.74.5-.5.75-1.27.75-2.31v-1.07c-.35.53-.81.94-1.38,1.22-.57.28-1.2.42-1.9.42-.79,0-1.51-.17-2.15-.52s-1.15-.83-1.52-1.46-.55-1.33-.55-2.12.18-1.49.55-2.11c.37-.62.87-1.1,1.51-1.44.64-.34,1.36-.51,2.16-.51.71,0,1.36.14,1.94.43.58.29,1.04.7,1.39,1.25v-1.62h1.09Zm-2.66,6.7c.49-.26.87-.63,1.14-1.1.27-.47.41-1,.41-1.6s-.14-1.13-.41-1.59c-.27-.46-.65-.83-1.14-1.09-.49-.26-1.04-.39-1.66-.39s-1.16.13-1.64.38c-.49.26-.86.62-1.14,1.09-.27.47-.41,1-.41,1.6s.14,1.13.41,1.6c.27.47.65.83,1.14,1.1.49.26,1.03.39,1.64.39s1.16-.13,1.65-.39Z"/>
      </g>
      <g class="cls-4">
        <path class="cls-1" d="m228.51,327.22c-.65-.37-1.16-.88-1.54-1.53s-.56-1.39-.56-2.21.19-1.56.56-2.21.89-1.16,1.54-1.52c.65-.36,1.38-.54,2.19-.54s1.54.18,2.19.54c.65.36,1.16.87,1.53,1.52s.55,1.39.55,2.21-.18,1.56-.55,2.21-.88,1.16-1.53,1.53-1.38.55-2.19.55-1.54-.18-2.19-.55Zm3.8-.86c.47-.27.85-.66,1.11-1.16.27-.5.4-1.07.4-1.71s-.13-1.21-.4-1.71-.64-.89-1.11-1.16c-.47-.27-1.01-.41-1.61-.41s-1.13.14-1.61.41c-.47.27-.85.66-1.12,1.16-.27.5-.41,1.07-.41,1.71s.14,1.21.41,1.71c.27.5.65.89,1.12,1.16.47.27,1.01.41,1.61.41s1.13-.14,1.61-.41Zm-.04-8.39l-1.58-1.33-1.58,1.33h-1.06l2.06-1.98h1.15l2.06,1.98h-1.06Z"/>
      </g>
      <g class="cls-4">
        <path class="cls-1" d="m244.1,320.13c.62.61.94,1.51.94,2.68v4.88h-1.14v-4.77c0-.88-.22-1.54-.66-2-.44-.46-1.06-.69-1.87-.69-.91,0-1.62.27-2.15.81-.53.54-.79,1.28-.79,2.23v4.42h-1.14v-8.42h1.09v1.55c.31-.51.74-.91,1.29-1.19.55-.28,1.19-.42,1.91-.42,1.06,0,1.9.31,2.52.92Z"/>
      </g>
      <g class="cls-4">
        <path class="cls-1" d="m40.52,339.33c.62.61.94,1.51.94,2.68v4.88h-1.14v-4.77c0-.88-.22-1.54-.66-2-.44-.46-1.06-.69-1.87-.69-.91,0-1.62.27-2.15.81-.53.54-.79,1.28-.79,2.23v4.42h-1.14v-8.42h1.09v1.55c.31-.51.74-.91,1.29-1.19.55-.28,1.19-.42,1.91-.42,1.06,0,1.9.31,2.52.92Z"/>
      </g>
      <g class="cls-4">
        <path class="cls-1" d="m52.37,338.48v7.39c0,1.43-.35,2.49-1.05,3.18-.7.69-1.75,1.03-3.16,1.03-.78,0-1.52-.11-2.22-.34-.7-.23-1.27-.55-1.7-.95l.58-.86c.41.36.9.64,1.48.85.58.2,1.19.3,1.83.3,1.07,0,1.85-.25,2.35-.74.5-.5.75-1.27.75-2.31v-1.07c-.35.53-.81.94-1.38,1.22-.57.28-1.2.42-1.9.42-.79,0-1.51-.17-2.15-.52s-1.15-.83-1.52-1.46-.55-1.33-.55-2.12.18-1.49.55-2.11c.37-.62.87-1.1,1.51-1.44.64-.34,1.36-.51,2.16-.51.71,0,1.36.14,1.94.43.58.29,1.04.7,1.39,1.25v-1.62h1.09Zm-2.66,6.7c.49-.26.87-.63,1.14-1.1.27-.47.41-1,.41-1.6s-.14-1.13-.41-1.59c-.27-.46-.65-.83-1.14-1.09-.49-.26-1.04-.39-1.66-.39s-1.16.13-1.64.38c-.49.26-.86.62-1.14,1.09-.27.47-.41,1-.41,1.6s.14,1.13.41,1.6c.27.47.65.83,1.14,1.1.49.26,1.03.39,1.64.39s1.16-.13,1.65-.39Z"/>
      </g>
      <g class="cls-4">
        <path class="cls-1" d="m63.13,338.48v8.42h-1.09v-1.54c-.3.51-.71.91-1.23,1.19-.52.28-1.12.42-1.79.42-1.1,0-1.96-.31-2.6-.92s-.95-1.51-.95-2.7v-4.88h1.14v4.77c0,.89.22,1.56.66,2.02s1.06.69,1.87.69c.89,0,1.58-.27,2.1-.81.51-.54.77-1.29.77-2.25v-4.42h1.14Zm-3.39-1.58c-.19-.11-.4-.27-.62-.47-.19-.16-.34-.27-.46-.34-.11-.07-.23-.1-.36-.1-.25,0-.44.09-.59.27-.15.18-.23.43-.24.75h-.69c.02-.53.16-.96.42-1.28.26-.32.6-.48,1.02-.48.25,0,.46.05.65.16.19.11.4.27.65.48.17.15.31.26.43.34.12.07.24.11.37.11.24,0,.43-.09.58-.26s.23-.42.26-.73h.69c-.02.52-.16.94-.42,1.26s-.6.47-1.02.47c-.25,0-.46-.06-.66-.17Zm2.61,1.56h.24c.35,0,.62-.1.79-.3s.26-.46.26-.78c0-.38-.11-.73-.32-1.02l.75-.29c.28.38.42.83.42,1.34,0,.59-.17,1.05-.5,1.4-.33.35-.8.52-1.41.52h-.24v-.88Z"/>
      </g>
      <g class="cls-4">
        <path class="cls-1" d="m72.71,346.25c-.89-.49-1.59-1.17-2.1-2.04s-.76-1.84-.76-2.92.25-2.05.76-2.92c.51-.87,1.21-1.55,2.1-2.04.9-.49,1.9-.74,3.01-.74.83,0,1.6.14,2.3.42s1.3.68,1.79,1.22l-.75.75c-.88-.88-1.98-1.33-3.31-1.33-.89,0-1.69.2-2.42.61-.73.41-1.29.96-1.7,1.66-.41.7-.62,1.49-.62,2.37s.21,1.66.62,2.37c.41.7.98,1.26,1.7,1.66.72.41,1.53.61,2.42.61,1.34,0,2.45-.45,3.31-1.34l.75.75c-.49.53-1.09.94-1.8,1.22-.71.28-1.48.42-2.31.42-1.11,0-2.11-.25-3-.74Z"/>
      </g>
      <g class="cls-4">
        <path class="cls-1" d="m87.56,346.43c-.66-.36-1.17-.87-1.54-1.53s-.56-1.39-.56-2.22.19-1.56.56-2.21.89-1.16,1.54-1.52c.66-.36,1.4-.54,2.23-.54.72,0,1.37.14,1.94.42.57.28,1.02.7,1.35,1.24l-.85.58c-.28-.42-.63-.73-1.06-.94s-.89-.31-1.39-.31c-.61,0-1.16.14-1.64.41-.49.27-.86.66-1.14,1.16-.27.5-.41,1.07-.41,1.71s.14,1.22.41,1.72c.27.5.65.88,1.14,1.15.49.27,1.03.41,1.64.41.5,0,.96-.1,1.39-.3.43-.2.78-.51,1.06-.93l.85.58c-.33.54-.78.96-1.36,1.24-.58.28-1.22.42-1.94.42-.83,0-1.58-.18-2.23-.54Z"/>
      </g>
      <g class="cls-4">
        <path class="cls-1" d="m102.44,340.69c.29.59.44,1.26.44,1.99,0,.82-.18,1.56-.55,2.21s-.88,1.16-1.53,1.53-1.38.55-2.19.55-1.54-.18-2.19-.55-1.16-.88-1.54-1.53-.56-1.39-.56-2.21.19-1.56.56-2.21.89-1.16,1.54-1.52c.65-.36,1.38-.54,2.19-.54.21,0,.42,0,.62.02.2.02.35.02.43.02.29.03.6.05.93.05.43,0,.75-.11.97-.32.22-.21.33-.48.33-.8s-.11-.67-.32-1.02l.74-.29c.29.44.43.89.43,1.34s-.13.85-.4,1.17c-.27.32-.65.53-1.14.64.53.38.95.87,1.24,1.46Zm-2.24,4.86c.47-.27.85-.66,1.12-1.16.27-.5.41-1.07.41-1.71s-.13-1.21-.4-1.71-.64-.89-1.11-1.16c-.47-.27-1.01-.41-1.61-.41s-1.13.14-1.61.41c-.47.27-.85.66-1.12,1.16-.27.5-.41,1.07-.41,1.71s.14,1.21.41,1.71c.27.5.65.89,1.12,1.16.47.27,1.01.41,1.61.41s1.12-.14,1.59-.41Z"/>
      </g>
      <g class="cls-4">
        <path class="cls-1" d="m115.87,338.95c.64.36,1.14.86,1.5,1.51.36.65.54,1.39.54,2.22s-.18,1.57-.54,2.22c-.36.65-.86,1.16-1.5,1.52-.64.36-1.36.54-2.14.54-.7,0-1.34-.15-1.9-.45-.56-.3-1.01-.73-1.35-1.3v1.66h-1.09v-11.87h1.14v5.06c.35-.54.8-.96,1.35-1.24.55-.28,1.17-.42,1.85-.42.79,0,1.5.18,2.14.54Zm-.62,6.61c.48-.27.86-.66,1.13-1.16.27-.5.41-1.07.41-1.71s-.14-1.21-.41-1.71c-.27-.5-.65-.89-1.13-1.16-.48-.27-1.01-.41-1.6-.41s-1.13.14-1.61.41c-.48.27-.85.66-1.12,1.16-.27.5-.41,1.07-.41,1.71s.14,1.21.41,1.71c.27.5.64.89,1.12,1.16.47.27,1.01.41,1.61.41s1.12-.14,1.6-.41Z"/>
      </g>
      <g class="cls-4">
        <path class="cls-1" d="m125.66,339.24c.59.55.88,1.36.88,2.44v5.22h-1.09v-1.31c-.26.44-.63.78-1.13,1.02s-1.08.37-1.77.37c-.94,0-1.69-.22-2.24-.67s-.83-1.04-.83-1.78.26-1.29.78-1.73c.52-.44,1.34-.66,2.47-.66h2.67v-.51c0-.73-.2-1.28-.61-1.66-.41-.38-1-.57-1.78-.57-.53,0-1.05.09-1.54.26-.49.18-.91.42-1.26.73l-.51-.85c.43-.36.94-.64,1.54-.84.6-.2,1.23-.3,1.89-.3,1.1,0,1.94.28,2.53.82Zm-1.28,6.4c.46-.29.8-.72,1.02-1.27v-1.38h-2.64c-1.44,0-2.16.5-2.16,1.5,0,.49.19.88.56,1.16.37.28.9.42,1.57.42s1.19-.15,1.65-.44Zm-1.41-8.86c.63-.29.94-.67.94-1.14,0-.22-.08-.41-.25-.56-.17-.15-.38-.22-.63-.22-.33,0-.65.1-.96.3l-.27-.56c.17-.13.38-.23.62-.3.24-.07.48-.11.71-.11.45,0,.81.13,1.1.38.28.25.42.58.42,1,0,.75-.43,1.32-1.28,1.71l-.4-.5Z"/>
      </g>
      <g class="cls-4">
        <path class="cls-1" d="m136.44,339.33c.62.61.94,1.51.94,2.68v4.88h-1.14v-4.77c0-.88-.22-1.54-.66-2-.44-.46-1.06-.69-1.87-.69-.91,0-1.62.27-2.15.81-.53.54-.79,1.28-.79,2.23v4.42h-1.14v-8.42h1.09v1.55c.31-.51.74-.91,1.29-1.19.55-.28,1.19-.42,1.91-.42,1.06,0,1.9.31,2.52.92Z"/>
      </g>
    </g>
  </g>
</svg>